<svg id="Capa_1" data-name="Capa 1" xmlns="http://www.w3.org/2000/svg" viewBox="0 0 359.54 299.68"><defs><style>.cls-1{fill:#f2f2f2;}.cls-2{fill:#2bdafd;}.cls-3{fill:#88f3fd;}</style></defs><path className="cls-1" d="M923.2,455.9c-9.3-3.1-18.3-6.9-27.6-10.1-3.4-1.2-4.9-3-5.6-6.5A150,150,0,0,0,701.8,323C630,343.2,584.1,414.4,594.9,488.9,605.5,562.5,668.6,617,757.7,617c18.1-.1,47.7-9.9,74.2-29.2,2.3-1.7,4-2,6.7-.9,10.5,4.1,21.1,7.8,31.6,11.9,8.8,3.4,17.9-.1,21.3-9.5,2.4-6.7,5.2-13.3,7.4-20,2.6-7.9-.6-15.2-8.5-18.2-21.3-8.3-42.7-16.2-64-24.5-2.6-1-3.4.1-4.8,1.8-25.2,31.5-57.7,45.1-97.8,38.6-51.8-8.3-88.5-57.2-82.7-109.5,7.3-67,77-107.9,139.3-81.9,39.6,16.5,64.6,58.2,60.7,99.2-.4,4.5.7,6.6,5.1,8.2,20,7.2,39.8,14.8,59.7,22.1,9.4,3.5,17.3-.1,20.9-9.4,2.3-5.9,4-12,6.6-17.7C937.5,469.1,933.1,459.2,923.2,455.9Z" transform="translate(-593.33 -317.32)"/><path className="cls-2" d="M940.4,516.3c-9.1-5.7-18.7-5.6-27.7.4a7.62,7.62,0,0,1-7.8.9c-26.4-10.5-52.8-21.1-79.2-31.4-3.1-1.2-3.4-2.5-3.1-5.5,2-19.4-.1-38.1-10.5-55.2-5.1-8.3-10.7-16.2-19.2-21.5-7.4,4.4-14.8,8.8-20.7,15.2C758.7,433.8,752,451.3,751,471c-.6,10.5,1.3,20.9,1.6,31.3.5,17.9-6,33-21,43.9-1.6,1.1-3.7,1.6-4.6,3.7a81.18,81.18,0,0,0,37-2.4c20.1-6.2,36.2-18.2,47.1-36.4,2-3.4,4.2-3.9,7.7-2.5,26.1,10.4,52.1,20.8,78.3,31,2.5,1,3.4,1.8,4.1,4.5,2.7,10.9,12.3,21.5,28,20.2,11.7-1,22.3-10.6,23.5-22.5C953.8,530.9,949.6,522.1,940.4,516.3Z" transform="translate(-593.33 -317.32)"/><path className="cls-3" d="M792.5,402.6A88.32,88.32,0,0,0,756,385.8c-4.3-.9-6.8.6-9.3,3.6-9.8,11.8-16.2,24.9-17.9,40.5a101.29,101.29,0,0,0,1.7,31.1c1.7,8.6,5.7,16.5,7.7,25,2.9,12.3,3.1,24.5-2.6,36.3-4.2,8.8-10.6,15.5-18.1,21.4-.9.7-2.2,1-2.1,2.5a1.81,1.81,0,0,0,1.7,1.6c3.6-.2,6.5,2.7,10.1,2.1.9-2,3-2.5,4.6-3.7,14.9-10.9,21.5-26,21-43.9-.3-10.4-2.2-20.8-1.6-31.3,1-19.7,7.7-37.1,21.2-51.8,5.9-6.4,13.3-10.8,20.7-15.2C792.8,403.6,792.9,402.9,792.5,402.6Z" transform="translate(-593.33 -317.32)"/></svg>