<?xml version="1.0" encoding="utf-8"?>
<!-- Generator: Adobe Illustrator 26.0.1, SVG Export Plug-In . SVG Version: 6.00 Build 0)  -->
<svg version="1.1" id="Capa_1" xmlns="http://www.w3.org/2000/svg" xmlns:xlink="http://www.w3.org/1999/xlink" x="0px" y="0px"
	 viewBox="0 0 750 441.1" style="enable-background:new 0 0 750 441.1;" xml:space="preserve">
<style type="text/css">
	.st0{fill:#E0E0E0;}
	.st1{fill:#E6E6E6;}
	.st2{fill:#F0F0F0;}
	.st3{fill:#F5F5F5;}
	.st4{fill:#EBEBEB;}
	.st5{fill:#00FFFB;}
	.st6{opacity:0.3;fill:#26E1FF;enable-background:new    ;}
	.st7{opacity:0.3;}
	.st8{fill:#26E1FF;}
	.st9{opacity:0.3;enable-background:new    ;}
	.st10{fill:#FFFFFF;}
	.st11{fill:none;stroke:#000000;stroke-linecap:round;stroke-linejoin:round;}
	.st12{fill:#243835;}
	.st13{fill:#EB966A;}
	.st14{opacity:0.2;enable-background:new    ;}
	.st15{fill:none;stroke:#243835;stroke-width:0.5;stroke-miterlimit:10;}
	
		.st16{opacity:0.1;fill:none;stroke:#000000;stroke-width:0.5;stroke-linecap:round;stroke-linejoin:round;enable-background:new    ;}
	.st17{opacity:0.3;fill:none;enable-background:new    ;}
	.st18{opacity:0.1;enable-background:new    ;}
	.st19{opacity:0.7;fill:#FFFFFF;enable-background:new    ;}
	.st20{fill:#263833;}
	.st21{opacity:0.7;enable-background:new    ;}
	.st22{fill:#B96564;}
	.st23{fill:#61F3FF;}
	.st24{opacity:0.2;fill:#FFFFFF;enable-background:new    ;}
	.st25{fill:none;stroke:#61F3FF;stroke-width:0.25;stroke-miterlimit:10;}
	.st26{opacity:0.5;fill:none;enable-background:new    ;}
	.st27{opacity:0.5;fill:#26E1FF;enable-background:new    ;}
	.st28{opacity:0.3;fill:#FFFFFF;enable-background:new    ;}
	.st29{fill:none;}
	.st30{font-family:'ArialMT';}
	.st31{font-size:12px;}
</style>
<g id="Background_complete">
	<path class="st0" d="M291.7,143.5c-4.4,6.7-7.4,14.1-9,21.9l-12.2,1.2v23.7l12.2,1.1c1.6,7.8,4.7,15.2,9,21.9l-7.8,9.4l16.8,16.8
		l9.4-7.8c6.7,4.4,14.1,7.4,21.9,9l1.1,12.3h23.7l1.1-12.3c7.8-1.6,15.2-4.6,21.9-9l9.4,7.8l16.8-16.8l-7.8-9.4
		c4.4-6.7,7.4-14.1,9-21.9l12.2-1.1v-23.7l-12.2-1.2c-1.6-7.8-4.7-15.2-9-21.9l7.8-9.4l-16.8-16.8l-9.4,7.8
		c-6.7-4.4-14.1-7.5-21.9-9.1l-1.1-12.2h-23.7L332,116c-7.8,1.6-15.2,4.6-21.9,9l-9.4-7.8L283.9,134L291.7,143.5z M367.7,155.7
		c12.5,12.5,12.5,32.8,0,45.4c-12.5,12.5-32.8,12.5-45.4,0s-12.5-32.8,0-45.4c0,0,0,0,0,0C334.9,143.2,355.2,143.2,367.7,155.7z"/>
	<path class="st0" d="M183.6,102c-2.5,3.8-4.2,7.9-5.1,12.3l-6.9,0.7v13.3l6.9,0.6c0.9,4.4,2.6,8.6,5.1,12.3l-4.4,5.3l9.4,9.4
		l5.3-4.4c3.8,2.5,7.9,4.2,12.3,5.1l0.6,6.9h13.3l0.6-6.9c4.4-0.9,8.6-2.6,12.3-5.1l5.3,4.4l9.4-9.4l-4.4-5.3
		c2.4-3.7,4.2-7.9,5.1-12.3l6.9-0.6V115l-6.9-0.7c-0.9-4.4-2.6-8.6-5.1-12.3l4.4-5.3l-9.4-9.4l-5.3,4.4c-3.8-2.5-7.9-4.2-12.3-5.1
		l-0.6-6.9h-13.4l-0.6,6.9c-4.4,0.9-8.6,2.6-12.3,5.1l-5.3-4.4l-9.4,9.4L183.6,102z M226.3,108.9c7.1,7.1,7.1,18.5,0,25.5
		c-7.1,7.1-18.5,7.1-25.5,0c-7.1-7.1-7.1-18.5,0-25.5c0,0,0,0,0,0C207.8,101.8,219.3,101.8,226.3,108.9L226.3,108.9z"/>
	<path class="st0" d="M219.5,44c-1.2,1.9-2.1,4-2.5,6.2l-3.4,0.3v6.7l3.4,0.3c0.5,2.2,1.3,4.3,2.5,6.2l-2.2,2.7l4.7,4.7l2.7-2.2
		c1.9,1.2,4,2.1,6.2,2.5l0.3,3.4h6.7l0.3-3.4c2.2-0.5,4.3-1.3,6.2-2.5l2.7,2.2l4.7-4.7l-2.2-2.7c1.2-1.9,2.1-4,2.6-6.2l3.4-0.3v-6.7
		l-3.4-0.3c-0.4-2.2-1.3-4.3-2.6-6.2l2.2-2.7l-4.7-4.7l-2.7,2.2c-1.9-1.2-4-2.1-6.2-2.5l-0.3-3.4h-6.7l-0.3,3.4
		c-2.2,0.5-4.3,1.3-6.2,2.5l-2.7-2.2l-4.7,4.7L219.5,44z M240.9,47.4c3.5,3.5,3.5,9.2,0,12.7s-9.2,3.5-12.7,0
		c-3.5-3.5-3.5-9.2,0-12.7C231.7,43.9,237.4,43.9,240.9,47.4C240.9,47.5,240.9,47.5,240.9,47.4L240.9,47.4z"/>
	<path class="st1" d="M165.6,240.1l-43,8.5c-1.9,0.4-3.7-0.9-4.1-2.8c0,0,0,0,0,0l-11.3-57.2c-0.4-1.9,0.9-3.7,2.8-4.1c0,0,0,0,0,0
		L153,176c1.9-0.4,3.7,0.9,4.1,2.8c0,0,0,0,0,0l11.2,57.2C168.7,237.9,167.5,239.8,165.6,240.1C165.6,240.1,165.6,240.1,165.6,240.1
		z"/>
	<path class="st2" d="M149,195.7l-28,5.5c-1,0.2-1.9-0.4-2.1-1.4l-0.2-0.8c-0.2-1,0.4-1.9,1.4-2.1c0,0,0,0,0,0l28-5.5
		c1-0.2,1.9,0.4,2.1,1.4l0.1,0.8C150.6,194.6,150,195.5,149,195.7C149,195.7,149,195.7,149,195.7z"/>
	<path class="st2" d="M151.1,206.6l-28,5.5c-1,0.2-1.9-0.4-2.1-1.4c0,0,0,0,0,0l-0.2-0.8c-0.2-1,0.4-1.9,1.4-2.1c0,0,0,0,0,0l28-5.5
		c1-0.2,1.9,0.4,2.1,1.4c0,0,0,0,0,0l0.1,0.8C152.7,205.5,152.1,206.4,151.1,206.6C151.2,206.6,151.2,206.6,151.1,206.6z"/>
	<path class="st2" d="M153.3,217.5l-28,5.5c-1,0.2-1.9-0.4-2.1-1.4l-0.2-0.8c-0.2-1,0.4-1.9,1.4-2.1c0,0,0,0,0,0l28-5.5
		c1-0.2,1.9,0.4,2.1,1.4l0.1,0.8C154.9,216.4,154.3,217.3,153.3,217.5C153.3,217.5,153.3,217.5,153.3,217.5z"/>
	<path class="st2" d="M140.6,231.3l-13.1,2.6c-1,0.2-1.9-0.4-2.1-1.4c0,0,0,0,0,0l-0.2-0.8c-0.2-1,0.4-1.9,1.4-2.1c0,0,0,0,0,0
		l13.1-2.6c1-0.2,1.9,0.4,2.1,1.4c0,0,0,0,0,0l0.2,0.8C142.1,230.2,141.5,231.1,140.6,231.3C140.6,231.3,140.6,231.3,140.6,231.3z"
		/>
	<path class="st1" d="M207.4,297.8l-27.2-3.2c-1.9-0.2-3.3-2-3.1-3.9l4.4-37c0.2-1.9,2-3.3,3.9-3.1l27.2,3.2c1.9,0.2,3.3,2,3.1,3.9
		c0,0,0,0,0,0l-4.4,37C211.1,296.6,209.4,298,207.4,297.8z"/>
	<path class="st2" d="M206.9,265.8l-18.6-2.2c-0.8-0.1-1.4-0.8-1.3-1.6l0,0c0.1-0.8,0.8-1.4,1.6-1.3l18.6,2.2
		c0.8,0.1,1.4,0.8,1.3,1.6c0,0,0,0,0,0l0,0C208.4,265.3,207.7,265.9,206.9,265.8z"/>
	<path class="st2" d="M206,273.2l-18.6-2.2c-0.8-0.1-1.4-0.8-1.3-1.6c0,0,0,0,0,0l0,0c0.1-0.8,0.8-1.4,1.6-1.3c0,0,0,0,0,0l18.6,2.2
		c0.8,0.1,1.4,0.8,1.3,1.6l0,0C207.6,272.7,206.9,273.3,206,273.2C206,273.3,206,273.3,206,273.2z"/>
	<path class="st2" d="M205.1,280.7l-18.6-2.2c-0.8-0.1-1.4-0.8-1.3-1.6c0,0,0,0,0,0l0,0c0.1-0.8,0.8-1.4,1.6-1.3l18.6,2.2
		c0.8,0.1,1.4,0.8,1.3,1.6c0,0,0,0,0,0l0,0C206.7,280.2,205.9,280.8,205.1,280.7z"/>
	<path class="st2" d="M194,287l-8.4-1c-0.8-0.1-1.4-0.8-1.3-1.6l0,0c0-0.8,0.7-1.4,1.5-1.4c0.1,0,0.1,0,0.2,0l8.4,1
		c0.8,0.1,1.4,0.8,1.3,1.6l0,0c0,0.8-0.7,1.4-1.5,1.4C194.1,287,194.1,287,194,287z"/>
	<path class="st1" d="M658.1,182.9l-32.2-12.2c-1.8-0.7-2.7-2.7-2-4.5l16.4-43.2c0.7-1.8,2.7-2.7,4.5-2l32.2,12.1
		c1.8,0.7,2.7,2.7,2,4.5l-16.4,43.2C661.9,182.7,659.9,183.6,658.1,182.9z"/>
	<path class="st2" d="M666.4,145.3l-21.7-8.2c-0.8-0.3-1.1-1.1-0.9-1.9c0,0,0,0,0,0l0.2-0.6c0.3-0.8,1.1-1.1,1.9-0.9c0,0,0,0,0,0
		l21.7,8.2c0.8,0.3,1.1,1.1,0.9,1.9c0,0,0,0,0,0l-0.2,0.6C668,145.2,667.1,145.6,666.4,145.3z"/>
	<path class="st2" d="M663.2,153.8l-21.7-8.2c-0.8-0.3-1.1-1.1-0.9-1.9c0,0,0,0,0,0l0.2-0.6c0.3-0.8,1.1-1.1,1.9-0.9l21.7,8.2
		c0.8,0.3,1.1,1.1,0.9,1.9c0,0,0,0,0,0l-0.2,0.6C664.8,153.7,663.9,154,663.2,153.8C663.2,153.8,663.2,153.8,663.2,153.8z"/>
	<path class="st2" d="M660,162.2l-21.7-8.2c-0.8-0.3-1.1-1.1-0.9-1.9c0,0,0,0,0,0l0.2-0.6c0.3-0.8,1.1-1.1,1.9-0.9l21.7,8.2
		c0.8,0.3,1.1,1.1,0.9,1.9c0,0,0,0,0,0l-0.2,0.6C661.6,162.1,660.7,162.5,660,162.2z"/>
	<path class="st2" d="M645.2,166.3l-10.1-3.8c-0.8-0.3-1.1-1.1-0.9-1.9c0,0,0,0,0,0l0.2-0.6c0.3-0.8,1.1-1.1,1.9-0.9l10.1,3.9
		c0.8,0.3,1.1,1.1,0.8,1.9l-0.2,0.6C646.8,166.2,646,166.6,645.2,166.3z"/>
	<path class="st0" d="M397.8,40.9h-10.1c-0.9,0-1.6-0.7-1.6-1.5c0,0,0,0,0,0V26.7c0-0.9,0.7-1.6,1.6-1.6l0,0h10.1
		c0.9,0,1.6,0.7,1.6,1.6c0,0,0,0,0,0v12.6C399.3,40.2,398.6,40.9,397.8,40.9z"/>
	<path class="st0" d="M417.7,40.9h-10.1c-0.9,0-1.6-0.7-1.6-1.5c0,0,0,0,0,0V14.5c0-0.9,0.7-1.6,1.6-1.6l0,0h10.1
		c0.9,0,1.6,0.7,1.6,1.6c0,0,0,0,0,0v24.8C419.3,40.2,418.6,40.9,417.7,40.9z"/>
	<path class="st0" d="M439.2,41.2h-10.1c-0.9,0-1.6-0.7-1.6-1.6c0,0,0,0,0,0V2.4c0-0.9,0.7-1.6,1.6-1.6h10.1c0.9,0,1.6,0.7,1.6,1.6
		c0,0,0,0,0,0v37.2C440.8,40.5,440.1,41.2,439.2,41.2L439.2,41.2z"/>
	<path class="st0" d="M476.6,232.2c-2.4,3.6-4,7.6-4.9,11.9l-6.6,0.6v12.8l6.6,0.6c0.9,4.2,2.5,8.2,4.9,11.8l-4.2,5.1l9.1,9.1
		l5.1-4.2c3.6,2.4,7.6,4,11.9,4.9l0.6,6.6h12.8l0.6-6.6c4.2-0.9,8.3-2.5,11.9-4.9l5.1,4.2l9.1-9.1l-4.2-5.1c2.4-3.6,4-7.6,4.9-11.9
		l6.6-0.6v-12.8l-6.6-0.6c-0.9-4.2-2.5-8.3-4.9-11.9l4.2-5.1l-9.1-9.1l-5.1,4.2c-3.6-2.4-7.6-4-11.9-4.9l-0.6-6.6H499l-0.6,6.6
		c-4.2,0.9-8.3,2.5-11.9,4.9l-5.1-4.2l-9.1,9.1L476.6,232.2z M517.8,238.8c6.8,6.8,6.8,17.8,0,24.6c-6.8,6.8-17.8,6.8-24.6,0
		s-6.8-17.8,0-24.6c0,0,0,0,0,0C500,232.1,511,232.1,517.8,238.8z"/>
	<path class="st0" d="M556.1,262.6c-1.1,1.7-1.9,3.6-2.3,5.6l-3.1,0.3v6.1l3.1,0.3c0.4,2,1.2,3.9,2.3,5.6l-2,2.4l4.3,4.3l2.4-2
		c1.7,1.1,3.6,1.9,5.6,2.3l0.3,3.1h6.1l0.3-3.1c2-0.4,3.9-1.2,5.6-2.3l2.4,2l4.3-4.3l-2-2.4c1.1-1.7,1.9-3.6,2.3-5.6l3.1-0.3v-6.1
		l-3.1-0.3c-0.4-2-1.2-3.9-2.3-5.6l2-2.4l-4.3-4.3l-2.4,2c-1.7-1.1-3.6-1.9-5.6-2.3l-0.3-3.1h-6.1l-0.3,3.1c-2,0.4-3.9,1.2-5.6,2.3
		l-2.4-2l-4.3,4.3L556.1,262.6z M575.5,265.7c3.2,3.2,3.2,8.4,0,11.6s-8.4,3.2-11.6,0c-3.2-3.2-3.2-8.4,0-11.6
		C567.1,262.5,572.3,262.5,575.5,265.7z"/>
	<path class="st3" d="M502.2,170.4c-1.1,1.7-1.9,3.6-2.3,5.6l-3.1,0.3v6.1l3.1,0.3c0.4,2,1.2,3.9,2.3,5.6l-2,2.4l4.3,4.3l2.4-2
		c1.7,1.1,3.6,1.9,5.6,2.3l0.3,3.1h6.1l0.3-3.1c2-0.4,3.9-1.2,5.6-2.3l2.4,2l4.3-4.3l-2-2.4c1.1-1.7,1.9-3.6,2.3-5.6l3.1-0.3v-6.1
		l-3.1-0.3c-0.4-2-1.2-3.9-2.3-5.6l2-2.4l-4.3-4.3l-2.4,2c-1.7-1.1-3.6-1.9-5.6-2.3l-0.3-3.1h-6.1l-0.3,3.1c-2,0.4-3.9,1.2-5.6,2.3
		l-2.4-2l-4.3,4.3L502.2,170.4z M521.6,173.6c3.2,3.2,3.2,8.4,0,11.6c-3.2,3.2-8.4,3.2-11.6,0c-3.2-3.2-3.2-8.4,0-11.6
		C513.2,170.3,518.4,170.3,521.6,173.6C521.6,173.5,521.6,173.5,521.6,173.6z"/>
	<path class="st3" d="M551.6,192.7c-2.1,3.2-3.6,6.8-4.3,10.5l-5.9,0.6v11.4l5.9,0.6c0.8,3.7,2.2,7.3,4.3,10.5l-3.8,4.5l8,8l4.5-3.8
		c3.2,2.1,6.8,3.6,10.5,4.3l0.5,5.9h11.4l0.5-5.9c3.8-0.8,7.3-2.2,10.6-4.3l4.5,3.8l8-8l-3.8-4.5c2.1-3.2,3.6-6.8,4.3-10.5l5.9-0.6
		v-11.4l-5.9-0.6c-0.8-3.7-2.2-7.3-4.3-10.5l3.8-4.5l-8-8l-4.5,3.8c-3.2-2.1-6.8-3.6-10.5-4.3l-0.5-5.9h-11.4l-0.5,5.9
		c-3.7,0.8-7.3,2.2-10.5,4.3l-4.5-3.8l-8,8L551.6,192.7z M588.1,198.5c6,6,6,15.8,0,21.8c-6,6-15.8,6-21.8,0c-6-6-6-15.7,0-21.8
		C572.3,192.5,582,192.5,588.1,198.5z"/>
	<path class="st3" d="M146.3,34.1c-1.8,2.8-3.1,5.9-3.8,9.2l-5.1,0.5v9.9l5.1,0.5c0.7,3.3,2,6.4,3.8,9.2l-3.3,4l7,7l4-3.3
		c2.8,1.8,5.9,3.1,9.2,3.8l0.5,5.1h9.9l0.5-5.1c3.3-0.7,6.4-2,9.2-3.8l3.9,3.3l7-7l-3.3-4c1.8-2.8,3.1-5.9,3.8-9.2l5.1-0.5v-9.9
		l-5.1-0.5c-0.6-3.3-1.9-6.4-3.7-9.2l3.3-4l-7-7l-3.9,3.3c-2.8-1.8-5.9-3.1-9.2-3.8l-0.5-5.1h-9.9l-0.5,5.1
		c-3.3,0.7-6.4,1.9-9.2,3.8l-4-3.3l-7,7L146.3,34.1z M178.1,39.2c5.3,5.2,5.3,13.8,0,19s-13.8,5.3-19,0s-5.3-13.8,0-19c0,0,0,0,0,0
		C164.4,33.9,172.9,33.9,178.1,39.2L178.1,39.2z"/>
	<path class="st0" d="M673.7,275H493c-3.2,0-5.9-2.6-5.9-5.9V5.9c0-3.2,2.6-5.9,5.9-5.9h180.7c3.2,0,5.9,2.6,5.9,5.9v263.3
		C679.6,272.4,677,275,673.7,275z M493,0.2c-3.1,0-5.6,2.5-5.6,5.6v263.3c0,3.1,2.5,5.6,5.6,5.6h180.7c3.1,0,5.6-2.5,5.6-5.6V5.9
		c0-3.1-2.5-5.6-5.6-5.6H493z"/>
	<path class="st0" d="M465.3,275H284.6c-3.2,0-5.9-2.6-5.9-5.9V5.9c0-3.2,2.6-5.9,5.9-5.9h180.8c3.2,0,5.9,2.6,5.9,5.9v263.3
		C471.2,272.4,468.5,275,465.3,275z M284.6,0.2c-3.1,0-5.6,2.5-5.6,5.6v263.3c0,3.1,2.5,5.6,5.6,5.6h180.7c3.1,0,5.6-2.5,5.6-5.6
		V5.9c0-3.1-2.5-5.6-5.6-5.6H284.6z"/>
	<path class="st0" d="M257,275H76.3c-3.2,0-5.9-2.6-5.9-5.9V5.9C70.4,2.6,73,0,76.3,0H257c3.2,0,5.9,2.6,5.9,5.9v263.3
		C262.9,272.4,260.2,275,257,275z M76.3,0.2c-3.1,0-5.6,2.5-5.6,5.6v263.3c0,3.1,2.5,5.6,5.6,5.6H257c3.1,0,5.6-2.5,5.6-5.6V5.9
		c0-3.1-2.5-5.6-5.6-5.6H76.3z"/>
	<rect y="336.1" class="st0" width="750" height="0.1"/>
	<rect x="653.6" y="365.4" class="st4" width="55.7" height="0.4"/>
	<rect x="495" y="370" class="st4" width="14.6" height="0.4"/>
	<rect x="40.7" y="352.6" class="st4" width="72.7" height="0.4"/>
	<rect x="128.3" y="352.6" class="st4" width="10.7" height="0.4"/>
	<rect x="173.6" y="359.8" class="st4" width="157.6" height="0.4"/>
</g>
<g id="Shadow">
	<path class="st3" d="M629.4,418.5c0,3.4-113.9,6.1-254.4,6.1s-254.4-2.8-254.4-6.1s113.9-6.1,254.4-6.1S629.4,415.1,629.4,418.5z"
		/>
</g>
<path class="st5" d="M542.8,145l11.2,52.8c0.3,1.6-0.8,3.2-2.4,3.5c-0.6,0.1-1.2,0-1.7-0.2l-39.2-19.3c-1.5-0.7-2.1-2.6-1.3-4
	c0.1-0.2,0.2-0.3,0.3-0.5l28-33.5c1-1.2,2.9-1.4,4.1-0.4C542.3,143.8,542.6,144.4,542.8,145z"/>
<path class="st6" d="M542.8,145l11.2,52.8c0.3,1.6-0.8,3.2-2.4,3.5c-0.6,0.1-1.2,0-1.7-0.2l-39.2-19.3c-1.5-0.7-2.1-2.6-1.3-4
	c0.1-0.2,0.2-0.3,0.3-0.5l28-33.5c1-1.2,2.9-1.4,4.1-0.4C542.3,143.8,542.6,144.4,542.8,145z"/>
<path class="st5" d="M545.2,188.9l-4.3-30.2c31.1-4.4,52.8-33.3,48.3-64.4c-4.4-31.1-33.3-52.8-64.4-48.3s-52.8,33.3-48.3,64.4
	c0.3,2.1,0.7,4.1,1.2,6.1l-29.5,7.6C436.1,77.5,464.2,29.8,511,17.8s94.4,16.1,106.5,62.8s-16.1,94.4-62.8,106.5
	C551.5,187.9,548.4,188.5,545.2,188.9L545.2,188.9z"/>
<g class="st7">
	<path class="st8" d="M545.2,188.9l-4.3-30.2c31.1-4.4,52.8-33.3,48.3-64.4c-4.4-31.1-33.3-52.8-64.4-48.3s-52.8,33.3-48.3,64.4
		c0.3,2.1,0.7,4.1,1.2,6.1l-29.5,7.6C436.1,77.5,464.2,29.8,511,17.8s94.4,16.1,106.5,62.8s-16.1,94.4-62.8,106.5
		C551.5,187.9,548.4,188.5,545.2,188.9L545.2,188.9z"/>
</g>
<ellipse transform="matrix(0.9628 -0.2701 0.2701 0.9628 -6.4029 148.5569)" class="st5" cx="536.6" cy="97.5" rx="35.3" ry="35.3"/>
<ellipse transform="matrix(0.9628 -0.2701 0.2701 0.9628 -6.4029 148.5569)" class="st9" cx="536.6" cy="97.5" rx="35.3" ry="35.3"/>
<circle class="st5" cx="534.8" cy="95.6" r="35.3"/>
<ellipse transform="matrix(0.2298 -0.9732 0.9732 0.2298 318.8219 594.0687)" class="st10" cx="534.7" cy="95.6" rx="29.3" ry="29.3"/>
<path d="M520.7,116.4l3.9-5.8l0.3,0.2l-3.8,5.9L520.7,116.4z M512.9,108c-0.1-0.2-0.2-0.3-0.3-0.5l6.1-3.3c0.1,0.1,0.1,0.2,0.2,0.4
	L512.9,108z M532,120.6l0.8-6.9h0.4l-0.6,6.9L532,120.6z M509.6,96.4c0-0.2,0-0.4,0-0.6l7-0.1v0.4L509.6,96.4z M543.9,119l-2.5-6.5
	l0.4-0.2l2.8,6.4l-0.2,0.1L543.9,119z M512.1,84.7c0.1-0.2,0.2-0.3,0.3-0.5l6.2,3.2l-0.2,0.4L512.1,84.7z M548.5,107.5l0.2-0.3
	l5.4,4.4l-0.4,0.5L548.5,107.5z M523.9,81l-4.1-5.6l0.5-0.3l4,5.7L523.9,81z M552.5,99.8l0.1-0.4l6.8,1.5c0,0.2-0.1,0.4-0.1,0.6
	L552.5,99.8z M532,77.7l-1.1-6.9l0.5-0.1l1,6.9L532,77.7z M552.4,91.1c0-0.1-0.1-0.3-0.1-0.4l6.7-1.9c0.1,0.2,0.1,0.4,0.2,0.6
	L552.4,91.1z M540.6,78.4l2.2-6.6l0.6,0.2l-2.4,6.5L540.6,78.4z M548.2,83.4l-0.3-0.3l5.1-4.8c0.1,0.1,0.3,0.3,0.4,0.4L548.2,83.4z"
	/>
<polyline class="st11" points="527.4,84.7 534.4,96.8 545.7,85.7 "/>
<path d="M536.4,97.3c-0.8,0.9-2.2,1-3.1,0.2c-0.9-0.8-1-2.2-0.2-3.1c0.8-0.9,2.2-1,3.1-0.2c0,0,0,0,0,0
	C537.1,95,537.2,96.4,536.4,97.3z"/>
<path class="st9" d="M515.2,76.7c11.6-11.3,30.2-11,41.5,0.6c2.7,2.8,4.8,6.1,6.2,9.7c-4.6-15.5-20.9-24.4-36.5-19.8
	c-15.5,4.6-24.4,20.9-19.8,36.5c0.3,0.9,0.6,1.7,0.9,2.6C504.3,95.8,507.3,84.4,515.2,76.7z"/>
<path class="st5" d="M240.2,305.3c-56.9-63.1-51.8-160.4,11.3-217.2c18.2-16.4,40-28.2,63.7-34.4l-11.3,14.2L323.8,86
	c-64.2,17-102.6,82.8-85.6,147.1c4.9,18.5,14.1,35.6,26.9,49.8L240.2,305.3z"/>
<path class="st5" d="M243.6,307.2c1.2-0.3,42.2,0,42.2,0l-20.7-24.3l-24.9,22.4L243.6,307.2z"/>
<g class="st7">
	<path class="st8" d="M240.2,305.3c-56.9-63.1-51.8-160.4,11.3-217.2c18.2-16.4,40-28.2,63.7-34.4l-11.3,14.2L323.8,86
		c-64.2,17-102.6,82.8-85.6,147.1c4.9,18.5,14.1,35.6,26.9,49.8L240.2,305.3z"/>
	<path class="st8" d="M243.6,307.2c1.2-0.3,42.2,0,42.2,0l-20.7-24.3l-24.9,22.4L243.6,307.2z"/>
</g>
<path class="st5" d="M546.1,361.7v-54c0.1-1.7,1.5-2.9,3.1-2.9c0.6,0,1.2,0.2,1.7,0.6l34.3,27c1.3,1,1.5,2.8,0.5,4.1
	c-0.1,0.2-0.3,0.4-0.5,0.5l-34.3,27c-1.3,1-3.2,0.7-4.2-0.6C546.4,362.9,546.2,362.3,546.1,361.7z"/>
<rect x="361" y="318.7" class="st5" width="190.7" height="32.1"/>
<path class="st6" d="M584.9,332.4l-34.3-27c-1.3-1-3.1-0.8-4.1,0.5c-0.4,0.5-0.6,1.2-0.6,1.8v10.9H352.9v32.1h192.9v11
	c0.1,1.7,1.5,2.9,3.1,2.9c0.6,0,1.2-0.2,1.7-0.6l34.3-27c1.3-1,1.5-2.8,0.5-4.1C585.2,332.7,585.1,332.5,584.9,332.4z"/>
<path class="st8" d="M352.9,48.7v32.9c65.3,0.6,117.7,54,117.1,119.3c-0.6,64.4-52.7,116.5-117.1,117.1H141.7v32.9h211.1
	c83.3,0,151.1-67.8,151.1-151.1S436.1,48.7,352.9,48.7z"/>
<path class="st5" d="M359.2,38.3l-0.1,54c-0.1,1.7-1.5,2.9-3.1,2.9c-0.6,0-1.2-0.2-1.7-0.6l-34.3-27.1c-1.3-1.1-1.5-2.9-0.4-4.2
	c0.1-0.1,0.3-0.3,0.4-0.4l34.4-26.9c1.3-1,3.2-0.7,4.2,0.6C359,37.1,359.2,37.7,359.2,38.3z"/>
<path class="st9" d="M359.2,318.9c0.6,0-13.4,8.9-22.9,8.8l-0.9,24h-6.3l-12-32.1L359.2,318.9z"/>
<path class="st12" d="M347.6,152.7c4.4,7,6,11.2,6.7,18c0.8,8,0.8,15.1-0.9,17.2c-2.2,2.8-27.5,6.5-41.7,6.6c-0.5,0-1.1-4.5-1.1-4.5
	s-1.8,4.5-2.5,4.5c-3.9,0-6.4,0-6.4,0s2.9-6.8,5.7-30.8c1.4-11.8,12.9-16.9,19.8-18.1C338.6,143.6,347.6,152.7,347.6,152.7z"/>
<path class="st12" d="M314.9,176.8c-4-6.3-8.5-23.4,6.7-29.5c19-7.6,28.3,4.4,30.5,16.5s-4.2,21.7-17.1,21.4
	S317.7,181.1,314.9,176.8z"/>
<path class="st13" d="M346.7,199.9c0,0-4.3,3.3-9.8,8c-1.2,1-2.4,1.8-3.8,2.6c-3.6,1.9-6.9,3-7.8,1.3c-0.2-0.4-0.4-0.8-0.5-1.2
	c-0.8-2.9-0.5-7,1.9-8.9c2.7-2.1,3.9-3.9,3.5-6.8c-0.3-1.7-0.8-3.4-1.5-4.9l2.1-2.4l10.9-11C341.5,183.8,341,195.9,346.7,199.9z"/>
<path class="st14" d="M330.4,195.5c3-1.8,6.3-4.9,5.9-8.4c-0.1-1.3-0.4-2.6-0.9-3.8l-6.1,8.1C329.8,192.7,330.2,194.1,330.4,195.5z"
	/>
<path class="st13" d="M344.9,164.6c-1,11.2-1.2,16-7,21.9c-8.7,8.9-22.1,5.9-24.5-5.3c-2.1-10,0-26.7,11-31.4
	C335.2,145.1,345.9,153.3,344.9,164.6z"/>
<path class="st12" d="M335.5,154.6c-3.6,3.8-1.8,17.9,8.2,19.8C355.3,171.7,346.2,143.4,335.5,154.6z"/>
<path class="st12" d="M324.5,147.4c-4.4,1.5-9.1,9.2-9.9,12.1c6.3,1,23.3-4.9,23.3-4.9s11.4,3.1,5.6-2.6S324.5,147.4,324.5,147.4z"
	/>
<path class="st13" d="M348.3,173.8c-1.2,2.1-3.2,3.6-5.5,4.2c-3,0.7-4.5-4-3.5-7c1-2.8,3.8-4.4,6.7-3.9
	C348.9,167.7,349.8,171.1,348.3,173.8z"/>
<path class="st15" d="M309.1,161.6c-0.6,4.9-1.3,9.9-2.9,14.6s-5.1,14.4-9.3,17.2"/>
<circle class="st5" cx="344" cy="177.7" r="2.1"/>
<path class="st16" d="M345.9,170.5c-1.8-0.5-3.7,0.6-4.2,2.4c-0.1,0.3-0.1,0.5-0.1,0.8"/>
<path class="st13" d="M258.3,272.3c0.5-1.5,4.5-6.7,6.7-8.7s9.7-6.2,9.7-6.2l6.4,6c0,0-0.6,3.5-3.1,4.7c-1.5,0.7-3,1.3-3,1.3
	c0,0.9-0.1,1.9-0.3,2.8c-0.4,1.6-1.2,3.4-2.5,3s-0.7-4.7-0.6-5.3c-0.1,0.6-0.8,5-2.6,4.7s-0.9-4.8-0.9-4.8s-0.6,2-0.9,3.1
	s-1.6,1.7-2.3,0.3c-0.5-1.3-0.6-2.7-0.3-4c-1.2,1.2-2.3,2.5-3.4,3.8C259.6,275,257.8,273.6,258.3,272.3z"/>
<path class="st16" d="M271.3,270.8c0.1-0.8,0.4-1.6,0.6-2.4c0.3-0.8,0.8-1.5,1.4-2"/>
<path class="st16" d="M267.7,270.5c0.1-0.8,0.4-1.6,0.6-2.4c0.3-0.8,0.8-1.5,1.5-2"/>
<path class="st16" d="M264.5,269.4c0.1-0.8,0.3-1.6,0.6-2.4c0.3-0.8,0.8-1.5,1.5-2"/>
<path class="st13" d="M308,216.6c0,0.7-2,26.2-2,26.2c-1.4,2.7-30.6,12.8-34.4,16.5l6.8,7c0,0,34.8-7,40.4-11.1
	c4.8-3.5,4.4-9.6,4.4-17.9s2.9-20,2.9-20L308,216.6z"/>
<path class="st8" d="M321.2,201.5c-13.8,2.4-15.7,22.8-15.7,22.8l-2.1,16.2l-7.8,5.7l7.4,15.6c0,0,15.6-5.9,22.5-10s7-35.2,7-35.2
	L321.2,201.5z"/>
<path class="st14" d="M318.8,254.2c0.3,0.1-5.8,3.5-5.8,3.5s-2.2-8.9-2.2-8.9c-2-8.9-2.4-18-1.1-27
	C312.2,227.1,318.1,249.8,318.8,254.2z"/>
<path class="st12" d="M321.8,272.7c11.5-1.1,26.4-2.1,45.9-2.5c0,0,14.5,34.1-2.7,44.4c-5.2,3.1-13.8,4.3-23.2,4.5
	c-10.8,0.3-19.7-8.3-20-19c0-0.2,0-0.3,0-0.5L321.8,272.7L321.8,272.7z"/>
<path class="st12" d="M359.3,300.8v16c-14.3,4.1-44,2.6-61.6,1.1c-7.9-0.7-14.1-7.3-14.1-15.3v-13.1c0-4.4,2.7-8.3,6.8-9.8
	c8.5-3.2,24.1-8,40.4-7.8C346.6,272.2,359.3,285,359.3,300.8z"/>
<path class="st8" d="M370.2,270.2c-2.2-2.9-7.4-9.9-8-17.3v-0.1c0-0.5-0.1-1-0.1-1.4c-0.1-3.1-0.1-6.9,0.1-11.3
	c0-0.7,0.1-1.4,0.1-2.2c0.1-2.3,0.3-4.9,0.5-7.6c0.4-4.9,1-10.5,1.8-16.9c0.2-1.5,1.6-3.8,1.8-5.3c0.9-6.9-5.4-12-12.2-11.7
	c-1.8,0.1-3.8,0.2-5.7,0.4c-6.9,0.5-13.8,1.5-20.6,3c-2.2,0.5-4.5,1.1-6.7,1.8c-7.9,2.3-11.5,12.3-11.6,20.4
	c-0.1,7.5,5.2,22.9,8.8,36.4c0.5,7.8-3.7,12-2.4,14.7s38.8-4.6,54.2,4.6C370.2,277.6,372.6,273.3,370.2,270.2z"/>
<path class="st17" d="M370.2,270.2c-2.2-2.9-7.4-9.9-8-17.3v-0.1c0-0.5-0.1-1-0.1-1.4c-0.1-3.1-0.1-6.9,0.1-11.3
	c0-0.7,0.1-1.4,0.1-2.2c0.1-2.3,0.3-4.9,0.5-7.6c0.4-4.9,1-10.5,1.8-16.9c0.2-1.5,1.6-3.8,1.8-5.3c0.9-6.9-5.4-12-12.2-11.7
	c-1.8,0.1-3.8,0.2-5.7,0.4c-6.9,0.5-13.8,1.5-20.6,3c-2.2,0.5-4.5,1.1-6.7,1.8c-7.9,2.3-11.5,12.3-11.6,20.4
	c-0.1,7.5,5.2,22.9,8.8,36.4c0.5,7.8-3.7,12-2.4,14.7s38.8-4.6,54.2,4.6C370.2,277.6,372.6,273.3,370.2,270.2z"/>
<path class="st14" d="M364.3,260.4c0,0-13.2,2.9-19.4,3.2s-19.5,4.5-19.5,4.5l-4.7,2.9l-1.7-3.9l8-7.2l35-7.1
	C362.5,255.4,363.3,257.9,364.3,260.4z"/>
<polygon class="st14" points="349.1,216.8 347.5,239.4 340,246.8 345.2,250.9 352.3,246.6 356,233.8 "/>
<path class="st12" d="M292.6,423.3l17.6-7.8l5.5-6.2l1.7,2.3l2.1-0.9c1-7.8-2.8-11.4-4.8-13.1c-0.1-0.1-0.4-0.3-0.6-0.5l-0.2-0.2
	c0,0-0.1,0-0.1-0.1c-0.1-0.1-0.2-0.1-0.3-0.2s0,0-0.1,0l0,0l-0.1-0.1l-9.6,4.3c0,0-0.2,0.5-0.5,1.3c-1,2.7-3.3,8.9-6,12.2l-0.3,0.4
	c-0.3,0.4-0.6,0.7-1,1C288.5,421.7,292.6,423.3,292.6,423.3z"/>
<path class="st13" d="M296.9,414.7c2.7,1.1,6.6-1.6,9.6-5.2c1.8-2.5,3.3-5.1,4.6-7.8c0.7-1.4,1.5-2.6,2.5-3.8
	c0.4-0.4,0.8-0.5,1.1-0.4l0,0c-0.1-0.1-0.3-0.3-0.6-0.5c-0.1-0.1-0.2-0.1-0.2-0.2l-0.1-0.1l-0.3-0.2c0,0,0,0-0.1,0l0,0l-0.2-0.1
	c-1-0.8-2.1-1.5-2.1-1.5l-9.1,2.3l0.7,3.5c-1,3.6-3.1,10.4-5.6,13.6C297.1,414.5,297,414.6,296.9,414.7z"/>
<path class="st13" d="M282.1,347.2c5.6,13.9,14.3,31.6,20.7,53.8c0.1,0.4,0.2,0.8,0.4,1.2s0.2,0.9,0.4,1.3l6.6-1.6l0.3-1.2
	c0,0,2.3-1.8,1.9-2.2s-0.1-0.8-0.1-1.2l0,0c-1.8-15.5-8.7-72.3-15.5-84.1c0,0,7.7,1.4,13.6,0.5c4.2-0.7,9.3-29.9,9.3-29.9
	c-7.1-1.9-14.4-3-21.8-3.1h-0.1c0,0-21.7,6.4-27.2,11.3c-5.2,4.6-6,12-3.1,21C270,321.1,275.2,330,282.1,347.2z"/>
<path class="st18" d="M275.9,299c1.3-5,10.6-10,20.2-12.6c1.6-2-2.4-4.4-2.4-4.4l18.9-1.7l3.3,2.4l5.6,1.2l-5,22.6l-20.7,3.6
	l13.1,60.6l1.5,12c0,0-22.1-47.5-26.8-57.6S273.7,307.8,275.9,299z"/>
<path class="st13" d="M319.6,283.8c0,0-29.5,6.2-35.3,10.8c-4.9,3.9-5,8.9-3.5,13.7c4.4,13.2,20.2,35.2,38.2,98.5l10.4-3.2
	c-1,0-3.6-33-4.4-59.5c-0.4-12.5-6.8-23.3-9.3-27.6c0,0,10.5,1.4,16.4,0.5C339.8,315.6,344.5,290.5,319.6,283.8z"/>
<path class="st14" d="M316.5,317.6c0,0-3.9-6.5-8.8-9.2c0,0,6,0.4,9.8,8.2l-1.6-0.2L316.5,317.6z"/>
<path class="st12" d="M333,417.2l-2.1,0.5l-1.8-3c-0.2-0.3-0.6-0.4-0.9-0.2c0,0-0.1,0-0.1,0.1l-6.1,5.7l-16.7,3.7
	c0,0-3.7-3.9,4.6-6.5c0.4-0.2,0.8-0.4,1.1-0.7c4.1-3.2,9.1-11.9,9.1-11.9l9.9-2.2c0.4,0.4,0.8,0.8,1.1,1.2
	C332.5,405.8,335.4,410,333,417.2z"/>
<path class="st13" d="M331,403.9L331,403.9c-1.6-1.2-6.2,6.5-10.1,9.7c-3.5,2.8-7.7,4.6-10,3.1c4.1-3.2,9.3-14.1,9.3-14.1l8-1.8
	C328.2,400.8,330.3,403.1,331,403.9z"/>
<path class="st12" d="M300.6,288.1l29.1-11.1c0.3-0.1,0.5-0.5,0.4-0.9c-0.1-0.2-0.3-0.4-0.6-0.4l-46.7-0.6c-0.1,0-0.2,0-0.3,0.1
	l-18,11.6c-0.3,0.2-0.4,0.6-0.2,0.9c0.1,0.2,0.3,0.3,0.5,0.3h35.5C300.4,288.1,300.5,288.1,300.6,288.1z"/>
<path class="st19" d="M300.6,288.1l29.1-11.1c0.3-0.1,0.5-0.5,0.4-0.9c-0.1-0.2-0.3-0.4-0.6-0.4l-46.7-0.6c-0.1,0-0.2,0-0.3,0.1
	l-18,11.6c-0.3,0.2-0.4,0.6-0.2,0.9c0.1,0.2,0.3,0.3,0.5,0.3h35.5C300.4,288.1,300.5,288.1,300.6,288.1z"/>
<polygon class="st19" points="300.7,284.8 319.5,277.9 297.5,277.4 "/>
<path class="st9" d="M329.7,277l-29.1,11.1c-0.1,0-0.1,0-0.2,0h-0.5l-0.5-1.6l30.1-10.8c0.4,0,0.7,0.3,0.7,0.7
	C330.1,276.7,330,276.9,329.7,277z"/>
<path class="st12" d="M262.6,288.1h37.9c0.6,0.1,1.1-0.4,1.2-1c0,0,0,0,0,0c0-0.1,0-0.2-0.1-0.3l-16.9-38.6
	c-0.6-1.2-1.8-1.9-3.1-1.9h-37.9c-0.6-0.1-1.1,0.4-1.2,0.9c0,0.1,0,0.2,0.1,0.3l16.9,38.6C260.1,287.4,261.3,288.2,262.6,288.1z"/>
<path class="st19" d="M243.7,246.4h37.9c1.3-0.1,2.6,0.7,3.1,1.9l16.9,38.6c0,0.1,0.1,0.2,0.1,0.3c0,0.6-0.5,1-1.1,1c0,0,0,0,0,0
	h-37.9c-1.3,0.1-2.6-0.7-3.1-1.9l-16.9-38.6c0-0.1-0.1-0.2-0.1-0.3C242.6,246.8,243.1,246.3,243.7,246.4
	C243.7,246.4,243.7,246.4,243.7,246.4z"/>
<path class="st10" d="M267.2,268.1c0.8,1.9,2.5,3.1,3.7,2.9s1.6-2,0.8-3.8s-2.5-3.1-3.7-2.8S266.4,266.2,267.2,268.1z"/>
<path class="st9" d="M281.4,246.4h0.2c1.3-0.1,2.6,0.7,3.1,1.9l16.9,38.6c0,0.1,0.1,0.2,0.1,0.3c0,0.6-0.5,1-1.1,1c0,0,0,0,0,0h-1.2
	L281.4,246.4z"/>
<path class="st13" d="M349.9,214.7c0,0.7,2.3,26,2.3,26c-1.4,2.7-30.6,12.8-34.4,16.5l6.8,7c0,0,34.8-7,40.4-11.1
	c4.8-3.5,4.4-9.6,4.4-17.9c-0.2-6.9-0.8-13.7-1.8-20.5L349.9,214.7z"/>
<path class="st8" d="M352.8,199.1c-7.2,3-1.7,41.4-1.7,41.4l-7.1,3l4.3,16.4c0,0,8.7-1.7,17.4-3.4c9.2-1.9,10.5-23.1,5.9-40.3
	S361.2,195.6,352.8,199.1z"/>
<path class="st13" d="M305.6,275.6c0.2-1.6,2.8-7.6,4.4-10s7.9-8.3,7.9-8.3l7.6,4.3c0,0,0.3,3.5-1.9,5.4c-1.2,1.1-2.6,2-2.6,2
	c0.2,0.9,0.3,1.8,0.4,2.8c0,1.6-0.3,3.6-1.6,3.5s-1.8-4.3-1.9-5c0.1,0.6,0.4,5-1.4,5.2s-2-4.4-2-4.4s-0.1,2.1-0.1,3.2
	s-1.1,2-2.2,0.8c-0.8-1.1-1.2-2.5-1.3-3.8c-0.9,1.4-1.6,3-2.3,4.5C307.5,277.9,305.4,277,305.6,275.6z"/>
<path class="st16" d="M317.8,271c-0.1-0.8-0.1-1.6,0-2.5c0.1-0.8,0.4-1.6,0.9-2.3"/>
<path class="st16" d="M314.3,271.6c-0.1-0.8-0.1-1.6,0-2.5c0.1-0.8,0.4-1.6,0.9-2.3"/>
<path class="st16" d="M310.9,271.3c-0.1-0.8-0.1-1.6,0-2.5c0.1-0.8,0.4-1.6,0.9-2.3"/>
<path class="st20" d="M422.5,368c0,0,98.6-23.1,103.3-2.6c6.7,29.3-64.5,49-102.4,47.9S422.5,368,422.5,368z"/>
<path class="st14" d="M422.5,368c0,0,98.6-23.1,103.3-2.6c6.7,29.3-64.5,49-102.4,47.9S422.5,368,422.5,368z"/>
<path class="st21" d="M493.5,371.8l-46.3,29.4l6.2,8.8c0,0-3.3,4.8-9.5-10l28.7-19c0,0-9-0.9-8.7-2.3c0.4-2.3,20.1-6.7,29.1-8.7
	c0.5-0.2,1,0.1,1.1,0.5c0,0,0,0,0,0C494.2,371,494,371.6,493.5,371.8C493.5,371.7,493.5,371.8,493.5,371.8z"/>
<path class="st21" d="M445.5,397.9l8,13c-9.9,1.7-19.9,2.5-30,2.4c-3.3,0-6.6-0.6-9.7-1.8l-2.8-5.1l6.1-12.2L445.5,397.9z"/>
<polygon class="st22" points="460.8,392.7 440.2,405.8 443.9,415.8 468.1,404.9 "/>
<path class="st20" d="M428.9,409.1l2,7.2c0.9,0.2,1.7,0.9,2,1.8c0.1,1.1-0.1,2.2-0.4,3.2l5.5,19.8c0.7-0.2,1.3-0.4,1.9-0.7
	c0.6-0.4,1.1-0.9,1.6-1.4c1.5-1.7,1.6-4.1,1.7-6c0.1-3,1.8-11.9,1.8-11.9c0.6-1.7,1.7-3.2,3.1-4.4c1.1-0.8,1.8-2.1,1.9-3.5
	c-0.2-1.8-1.5-2.5-3.2-2.3l-2,0.2c-1.4-1-1.8-3-1-4.5c0,0,1.2-4.3-0.6-3.6c-1,0.4-5.6,2.5-9.2,3.9l-2.4,1l0,0L428.9,409.1z"/>
<path class="st23" d="M444.2,425.8c0-0.1,0-0.2-0.1-0.3c-0.4-0.4-1-0.7-1.5-0.8c-0.3-0.1-0.5,0.4-0.1,0.5c0.5,0.1,1,0.3,1.4,0.7
	C443.9,426,444,426,444.2,425.8C444.1,425.9,444.2,425.9,444.2,425.8L444.2,425.8z"/>
<path class="st23" d="M444.6,424.1c0.1-0.1,0-0.3-0.1-0.3c-0.4-0.4-0.9-0.6-1.5-0.8c-0.3-0.1-0.5,0.4-0.1,0.5c0.5,0.1,1,0.3,1.4,0.7
	C444.3,424.3,444.5,424.3,444.6,424.1C444.6,424.2,444.6,424.1,444.6,424.1L444.6,424.1z"/>
<path class="st23" d="M444.9,422.3c0-0.1,0-0.2-0.1-0.3c-0.4-0.4-1-0.7-1.5-0.8c-0.3-0.1-0.5,0.4-0.1,0.5c0.5,0.1,1,0.3,1.4,0.7
	C444.6,422.5,444.8,422.5,444.9,422.3C444.9,422.3,444.9,422.3,444.9,422.3L444.9,422.3z"/>
<path class="st24" d="M431.5,408L431.5,408l-2.6,1.1l2,7.2c0.9,0.2,1.7,0.9,2,1.8c0.1,1.1-0.1,2.2-0.4,3.2l5.5,19.8
	c0.7-0.2,1.3-0.4,1.9-0.7c0.3-0.2,0.6-0.4,0.8-0.6l-8.7-31.9L431.5,408z"/>
<path class="st25" d="M444.6,422.2c0.7-0.3,1.3-0.5,2-0.6c0.7-0.2,1.4-0.1,2.1,0.1c0.3,0.1,0.6,0.3,0.7,0.6c0,0.4-0.2,0.7-0.5,0.9
	c-0.6,0.4-1.3,0.5-1.9,0.4C446.2,423.2,445.4,422.8,444.6,422.2"/>
<path class="st25" d="M444.6,422.1c0.6-0.4,1.1-0.9,1.6-1.4c0.5-0.5,0.8-1.2,1-1.9c0.1-0.3,0-0.7-0.2-0.9c-0.3-0.2-0.7-0.2-1-0.1
	c-0.6,0.3-1.1,0.8-1.3,1.5C444.5,420.2,444.5,421.2,444.6,422.1"/>
<path class="st22" d="M463.3,305.2c0,0,3.6,32.1,4.6,33.8c3.3,5.8,24.8,15.8,24.8,15.8l11-2.3l7.9,6.6l-5.2,4.1l-6.1-2.3
	c-3.3,0.6-6.7,0.9-10.1,0.9c-5.7,0-33.1-7-37.6-14.6s-6.7-43-6.7-43L463.3,305.2z"/>
<path class="st8" d="M445.4,317.8c0,0-8.5-28.2,2.1-36s18.9,30.9,18.9,30.9L445.4,317.8z"/>
<path class="st26" d="M445.4,317.8c0,0-8.5-28.2,2.1-36s18.9,30.9,18.9,30.9L445.4,317.8z"/>
<path class="st8" d="M452.1,369.4L452,332l-0.8-51.1l-22-4.8l-19.2-0.8l-21.9,10l-0.5,12.5c0,0,2.5,57.6,2.4,59.3
	c-0.2,2.1-6.4,15.5-6.4,15.5C411.2,378.9,452.5,371.2,452.1,369.4z"/>
<path class="st26" d="M452.1,369.4L452,332l-0.8-51.1l-22-4.8l-19.2-0.8l-21.9,10l-0.5,12.5c0,0,2.5,57.6,2.4,59.3
	c-0.2,2.1-6.4,15.5-6.4,15.5C411.2,378.9,452.5,371.2,452.1,369.4z"/>
<path class="st20" d="M450,245.2c1.4-0.2,2.4-1.5,2.1-2.9c-0.2-1-0.9-1.9-1.9-2.1l-5.7-0.6l0.8,10.9c1.1,0.3,2.3,0.3,3.3,0
	c1.1-0.3,2-1.2,2.3-2.3C451.4,247.1,451,245.9,450,245.2z"/>
<path class="st22" d="M428.4,266.1l-12.1-15.3c0,0,0,0,0,0.1c0,1.4,0,3.1-0.2,4.9c0,0-1.3-0.6-1.3-0.6c-0.5,7.9-3.7,21.5-3.5,22.7
	l12.7,6.3h2.6l0.2-7.5C425.5,273.4,426.7,269.7,428.4,266.1z"/>
<path class="st14" d="M426.6,271.3l-7.7-6.1c-0.2,3.1,1.4,8,7.6,10.5C426.2,274.2,426.2,272.7,426.6,271.3z"/>
<path class="st22" d="M418.9,243.3c-2.5,10.3-3.5,15.2,0,22c5.3,10.1,18.2,10.2,23.8,0.8c5-8.4,8.3-23.8-0.4-30.8
	c-6.3-5.1-15.5-4.1-20.5,2.2C420.3,239.2,419.4,241.1,418.9,243.3z"/>
<path class="st20" d="M421,229.3c3.1-5.1,11.3-6,14.3-1.9c0.5,0.6-4.4,0.8-3.9,0.7l-2.9,8.1c-0.6-0.3-2,0-3.1,1.7
	c0,0-1.8,11.1-7.6,14.3C412.2,244.4,412.8,229.3,421,229.3z"/>
<path class="st22" d="M412.3,250.4c0,2.6,1.1,5.2,3,7c2.5,2.4,5.5,0.5,6.2-2.7c0.6-2.9,0.1-7.8-3.2-9S412.3,247.2,412.3,250.4z"/>
<path class="st20" d="M455.1,237.5c-0.7-2.1-3.1-2.9-5.3-3.1c1.4-0.2,2.5-1.3,2.4-2.8c-0.1-1.4-0.8-2.6-1.9-3.4
	c-2-1.5-4.6-1.9-6.9-1c0.4-0.2,0.6-0.8,0.4-1.2c-0.2-0.4-0.5-0.8-0.9-1c-2.4-1.7-5.7-1.6-7.9,0.4c-0.9-2.6-3.5-4.1-6.1-3.5
	c-2.5,0.6-7.1,1.1-7.8,7.4c-2.2-1.7-5.4-1.3-7.1,0.9c-1.7,2.2-1.3,5.4,0.9,7.1c0.1,0.1,0.1,0.1,0.2,0.1c-1.2-0.4-2.5,0.2-3,1.4
	c-0.4,1.2-0.1,2.5,0.7,3.4c0.9,0.9,2,1.5,3.2,1.8c1.1,0.4,2.3,0.4,3.4,0.1c1.1-0.3,2-1.2,2.3-2.3c0.3,1.2,1.4,2,2.6,1.9
	c1.2-0.2,2.2-1.1,2.4-2.3c0.2-1.2-0.3-2.4-1.3-3.1c1.3,1.1,3.2,0.9,4.3-0.4c0.1-0.2,0.3-0.4,0.4-0.6c0.9,2,2.5,3.6,4.4,4.6
	c2,0.9,4.6,0.5,5.9-1.3c0.6,0.8,1.3,1.5,2.1,2.1c0.8,0.6,1.9,0.8,2.8,0.5c1-0.3,1.6-1.3,1.5-2.3c1.5,1.4,3.7,1.9,5.7,1.3
	C454.5,241.7,455.6,239.6,455.1,237.5z"/>
<path class="st10" d="M420.8,283.5c0,0,5.4,4.8,8.1-1.4l1.4,1.1c0,0-0.1,4.6-2.7,6.1c0.6,2.5,11.5,39.6,13.4,58.2l-3,7.6l-7.9-6.2
	c0,0-3.8-32-5.1-59.2c-3.1-1-5.6-3.4-6.8-6.5L420.8,283.5z"/>
<polygon class="st14" points="427.7,284.2 432.4,287.8 433.1,276.9 431.6,276.6 430.4,283.9 428.2,282.6 "/>
<path class="st14" d="M405.4,277.4c-0.1,0,10.9,13.5,10.9,13.5l3.7-2.8l2.6-2.2l0.7-0.8l-14.6-10.1c-0.7,0.7-1.4,1.4-2.1,2
	C406.1,277,405.7,277.2,405.4,277.4z"/>
<polygon class="st23" points="406.1,277.1 411.5,272.4 426,286 422.2,284.7 416.7,288.9 "/>
<path class="st23" d="M426,286c-0.3-0.6,0.3-12.8,0.3-12.8l6,3.3c-0.3-0.1-0.5,10.2-0.6,10.2s-3.4-3.5-3.4-3.5L426,286z"/>
<polygon class="st14" points="451.7,316.3 450.5,292.2 455.9,315.3 "/>
<path class="st14" d="M405,319.8c0.7-0.1,4.1-1.3,4.1-1.3l-7.6-21.3l10.5,23.5l-6.3,2.5L405,319.8z"/>
<polygon class="st27" points="406.1,277.1 411.5,272.4 426,286 422.2,284.7 416.7,288.9 "/>
<path class="st27" d="M426,286c-0.3-0.6,0.3-12.8,0.3-12.8l6,3.3c-0.3-0.1-0.5,10.2-0.6,10.2s-3.4-3.5-3.4-3.5L426,286z"/>
<polygon class="st28" points="434.3,305.9 436.7,317.9 443.9,320.5 448.7,316.3 447.8,305 "/>
<path class="st23" d="M426.9,285l-2.2,0.5c0,0-0.1,0.1,0,0.1s-1.2,4.3-1.2,4.3c0.4,0.3,1.6,2.4,1.7,2.4s3.1-0.3,3.1-0.3l1.1-3.2
	L426.9,285z"/>
<path class="st14" d="M426.9,285l-2.2,0.5c0,0-0.1,0.1,0,0.1s-1.2,4.3-1.2,4.3c0.4,0.3,1.6,2.4,1.7,2.4s3.1-0.3,3.1-0.3l1.1-3.2
	L426.9,285z"/>
<path class="st22" d="M402,302.2c0,0,5.4,35.6,8.4,38.9c5.2,5.6,31.1,20.5,31.1,20.5l12.9-4.5c0.9-0.3,1.9-0.1,2.6,0.4l8.8,6.7
	l-0.8,0.7c-0.4,0.3-0.9,0.4-1.3,0.2l-1.4-0.7l1.5,1.5l-0.5,0.4c-0.5,0.4-1.2,0.5-1.8,0.4l-3.9-1l3.6,2.4c-0.8,0.7-2,0.9-3,0.6
	l-5.8-1.6c-3.9,0.9-8,1.5-12,1.7c-6.8,0.4-38.9-10.8-44.9-19s-12.2-42.3-12.2-42.3L402,302.2z"/>
<path class="st8" d="M384.9,325.9c0,0-8-32.3,2.5-40.1s21,33,21,33L384.9,325.9z"/>
<path class="st26" d="M384.9,325.9c0,0-8-32.3,2.5-40.1s21,33,21,33L384.9,325.9z"/>
<path class="st20" d="M471.1,366.9h-40.9c0,1.6,1.8,2.8,3.9,2.8h66.7c2.1,0,3.8-1.3,3.8-2.8L471.1,366.9z"/>
<path class="st20" d="M501.4,369.5H464c-0.6,0.1-1.1-0.4-1.2-1c0-0.1,0-0.2,0.1-0.3l16.6-38.1c0.6-1.2,1.8-1.9,3.1-1.8H520
	c0.5-0.1,1.1,0.3,1.1,0.8c0,0,0,0,0,0.1c0,0.1,0,0.2-0.1,0.3l-16.6,38.1C503.9,368.9,502.7,369.6,501.4,369.5z"/>
<path class="st19" d="M520,328.3h-37.4c-1.3-0.1-2.5,0.7-3.1,1.8l-16,36.7h-33.3c0,1.6,1.8,2.8,3.9,2.8h66.7c0.6,0,1.3-0.1,1.9-0.4
	c0.8-0.3,1.5-0.8,1.9-1.6l16.6-38.1c0-0.1,0.1-0.2,0.1-0.3C521.1,328.7,520.6,328.3,520,328.3C520.1,328.3,520,328.3,520,328.3z"/>
<path class="st10" d="M497.5,348.6c-0.8,1.8-2.4,3.1-3.7,2.8s-1.5-1.9-0.8-3.8s2.5-3.1,3.7-2.8S498.4,346.8,497.5,348.6z"/>
<g class="st7">
	<line class="st29" x1="462.8" y1="366.9" x2="463.5" y2="366.9"/>
	<path d="M479.5,330.2l-16,36.7h1.7l17.4-38.5C481.3,328.3,480.1,329,479.5,330.2z"/>
</g>
<polygon class="st22" points="481.4,409.2 505.5,413.1 509.4,403.1 484.1,395.2 "/>
<path class="st20" d="M516.2,418.1l3.3-6.7c-0.5-0.8-0.7-1.8-0.3-2.7c0.7-0.8,1.5-1.6,2.4-2.1l9.1-18.4c-0.6-0.3-1.2-0.5-1.9-0.7
	c-0.7-0.1-1.4-0.1-2.1,0c-2.2,0.3-4,2-5.2,3.4c-2.1,2.2-9.3,7.7-9.3,7.7c-1.6,0.9-3.4,1.3-5.2,1.2c-1.4-0.2-2.7,0.4-3.7,1.4
	c-1,1.5-0.5,2.9,0.9,3.9l1.6,1.1c0.4,1.7-0.6,3.5-2.3,4c0,0-3.7,2.5-1.9,3.1c1,0.4,5.8,1.9,9.5,3.2l2.4,0.8l0,0L516.2,418.1z"/>
<path class="st23" d="M515.9,395.4c-0.1,0.1-0.2,0.2-0.2,0.3c0.1,0.6,0.3,1.1,0.6,1.6c0.2,0.3,0.6,0,0.4-0.3
	c-0.3-0.4-0.5-0.9-0.6-1.4C516.2,395.5,516.1,395.4,515.9,395.4C515.9,395.4,515.9,395.4,515.9,395.4z"/>
<path class="st23" d="M514.4,396.5c-0.1,0.1-0.2,0.2-0.2,0.3c0.1,0.6,0.3,1.1,0.6,1.6c0.2,0.3,0.6,0,0.4-0.3
	c-0.3-0.4-0.5-0.9-0.6-1.4C514.7,396.5,514.6,396.4,514.4,396.5C514.5,396.4,514.4,396.4,514.4,396.5L514.4,396.5z"/>
<path class="st23" d="M513,397.6c-0.1,0-0.2,0.2-0.2,0.3c0.1,0.6,0.3,1.1,0.6,1.6c0.2,0.2,0.6,0,0.4-0.3c-0.3-0.4-0.5-0.9-0.6-1.4
	C513.3,397.6,513.2,397.5,513,397.6C513.1,397.5,513,397.5,513,397.6L513,397.6z"/>
<path class="st24" d="M519.2,408.6c0.7-0.8,1.5-1.6,2.4-2.1l9.1-18.4c-0.6-0.3-1.2-0.5-1.9-0.7c-0.3,0-0.7-0.1-1,0L513.1,417
	l0.4,0.1l0,0l2.7,0.9l3.3-6.7C518.9,410.6,518.8,409.5,519.2,408.6z"/>
<path class="st25" d="M513.1,397.8c-0.7-0.2-1.4-0.5-2-0.9c-0.6-0.4-1.1-0.9-1.5-1.5c-0.2-0.3-0.2-0.6-0.1-0.9
	c0.2-0.3,0.6-0.4,0.9-0.4c0.7,0.1,1.3,0.5,1.7,1C512.6,396,512.9,396.9,513.1,397.8"/>
<path class="st25" d="M513.1,397.9c-0.7-0.1-1.4-0.1-2.1,0c-0.7,0.1-1.4,0.3-2,0.7c-0.3,0.2-0.5,0.5-0.5,0.8
	c0.1,0.3,0.3,0.6,0.7,0.7c0.7,0.2,1.4,0.1,2-0.2C511.8,399.4,512.5,398.7,513.1,397.9"/>
<path class="st20" d="M390.9,398.2c-5.2-8.3-16.9-30.7,6.9-35.1s103.4,33.5,103.4,33.5l-5,15.2l-74.1-11.7c0,0,10.1,13.5-2.1,12.9
	C402.1,411.3,397.8,407,390.9,398.2z"/>
<path class="st21" d="M423.9,400.5l-20.3-6.4c0,0,17,10.4,23.3,11.7L423.9,400.5z"/>
<text transform="matrix(1 0 0 1 112.6 73.84)" class="st10 st30 st31">#26E1FF</text>
</svg>
